<svg width="987" height="201" viewBox="0 0 987 201" fill="none" xmlns="http://www.w3.org/2000/svg">
<path fill-rule="evenodd" clip-rule="evenodd" d="M115.46 133.32L230.87 199.95L115.46 0.0600586V133.32ZM121.42 34.2201L204.19 177.67L121.42 129.88V34.2101V34.2201Z" fill="url(#paint0_linear_26_50)"/>
<path d="M230.869 200C230.869 200 230.849 200 230.839 200L115.429 133.37C115.429 133.37 115.399 133.34 115.399 133.32V0.0600098C115.399 0.0600098 115.419 0.0100098 115.439 0.0100098C115.469 0.0100098 115.489 0.0100098 115.499 0.0400098L230.909 199.93C230.909 199.93 230.909 199.98 230.909 200C230.899 200.01 230.889 200.02 230.869 200.02V200ZM115.519 133.28L230.719 199.79L115.519 0.26001V133.28Z" fill="#010101"/>
<path d="M204.2 177.72C204.2 177.72 204.18 177.72 204.17 177.72L121.4 129.93C121.4 129.93 121.37 129.9 121.37 129.88V34.2099C121.37 34.2099 121.39 34.1599 121.41 34.1599C121.44 34.1599 121.46 34.1599 121.47 34.1899L204.24 177.64C204.24 177.64 204.24 177.69 204.24 177.71C204.23 177.72 204.21 177.73 204.2 177.73V177.72ZM121.48 129.84L204.05 177.51L121.48 34.4199V129.84Z" fill="#010101"/>
<path fill-rule="evenodd" clip-rule="evenodd" d="M115.46 0.0600586L0.0595703 199.94L115.47 133.31V0.0600586M109.51 129.88L26.7696 177.69L109.5 34.2801V129.87L109.51 129.88Z" fill="url(#paint1_linear_26_50)"/>
<path d="M0.0598828 200C0.0598828 200 0.0298828 200 0.0198828 199.98C-0.000117187 199.96 -0.000117187 199.93 0.0198828 199.91L115.41 0.03C115.41 0.03 115.45 0 115.47 0C115.49 0 115.51 0.03 115.51 0.05V133.31C115.51 133.31 115.5 133.35 115.48 133.36L0.0798828 199.99C0.0798828 199.99 0.0598828 199.99 0.0498828 199.99L0.0598828 200ZM115.41 0.26L0.209883 199.79L115.41 133.28V0.26Z" fill="#010101"/>
<path d="M26.7904 177.68C26.7904 177.68 26.7604 177.68 26.7504 177.66C26.7304 177.64 26.7304 177.61 26.7504 177.59L109.45 34.26C109.45 34.26 109.49 34.23 109.51 34.23C109.53 34.23 109.55 34.26 109.55 34.28V129.87C109.55 129.87 109.54 129.91 109.52 129.92L26.8104 177.67C26.8104 177.67 26.7904 177.67 26.7804 177.67L26.7904 177.68ZM109.44 34.49L26.9404 177.47L109.44 129.84V34.49Z" fill="#010101"/>
<path fill-rule="evenodd" clip-rule="evenodd" d="M0.0595703 199.94H230.87L115.46 133.31L0.0595703 199.94ZM115.47 139.97L198.34 188.04H32.5996L115.47 139.97Z" fill="url(#paint2_linear_26_50)"/>
<path d="M230.87 200H0.0597656C0.0597656 200 0.00976562 199.98 0.00976562 199.96C0.00976562 199.94 0.00976562 199.91 0.0397656 199.9L115.45 133.27C115.45 133.27 115.49 133.27 115.51 133.27L230.92 199.9C230.92 199.9 230.95 199.94 230.95 199.96C230.95 199.98 230.92 200 230.9 200H230.87ZM0.269766 199.89H230.67L115.47 133.38L0.259766 199.89H0.269766Z" fill="#010101"/>
<path d="M198.33 188.1H32.5998C32.5998 188.1 32.5498 188.08 32.5498 188.06C32.5498 188.04 32.5498 188.01 32.5798 188L115.45 139.93C115.45 139.93 115.49 139.93 115.51 139.93L157.45 164.14L198.38 187.99C198.4 188 198.41 188.03 198.41 188.05C198.41 188.07 198.38 188.09 198.36 188.09L198.33 188.1ZM32.7998 187.99H198.12L157.37 164.24L115.46 140.04L32.7998 187.99Z" fill="#010101"/>
<path d="M648 63.77H576.68V136.24H591.01V102.06L601.29 116.39H648C662.51 116.39 674.31 104.59 674.31 90.08C674.31 75.57 662.51 63.77 648 63.77ZM648 102.06H591.01V78.1H648C654.61 78.1 659.98 83.48 659.98 90.08C659.98 96.68 654.6 102.06 648 102.06Z" fill="#FEFFFF"/>
<path d="M717.05 136.24H731.38V78.0901L717.05 88.4801V136.24Z" fill="#FEFFFF"/>
<path d="M680.58 63.77V78.09H731.38H767.72V63.77H680.58Z" fill="#FEFFFF"/>
<path d="M472.88 90.08C472.88 75.57 461.08 63.77 446.57 63.77H375.25V136.24H389.58V78.1H446.57C453.18 78.1 458.55 83.48 458.55 90.08C458.55 96.68 453.17 102.06 446.57 102.06H389.58L399.96 116.39H442.17L453.99 136.24H470.67L457.44 114.03C466.53 109.88 472.87 100.71 472.87 90.08H472.88Z" fill="#FEFFFF"/>
<path d="M551.46 63.77L520.01 110.58L488.55 63.77H471.28L502.74 110.58H520L502.76 136.24H520.03L568.73 63.77H551.46Z" fill="#FEFFFF"/>
<path d="M365.69 136.24L329.19 99.73L365.69 63.77H345.27L292.13 116.12V63.77H277.8V136.24H292.12H292.13V136.23L318.98 109.78L345.43 136.24H365.69Z" fill="#FEFFFF"/>
<path d="M852.15 136.22H807.78C787.81 136.22 771.56 119.97 771.56 100C771.56 80.03 787.81 63.78 807.78 63.78H852.15C872.12 63.78 888.37 80.03 888.37 100C888.37 119.97 872.12 136.22 852.15 136.22ZM807.78 78.11C795.71 78.11 785.89 87.93 785.89 100C785.89 112.07 795.71 121.89 807.78 121.89H852.15C864.22 121.89 874.04 112.07 874.04 100C874.04 87.93 864.22 78.11 852.15 78.11H807.78Z" fill="#FEFFFF"/>
<path d="M971.62 63.77V130.28L971.59 130.23L925.2 63.76H897.92V136.23H912.31V69.72L912.32 69.73L912.31 69.72L912.52 70.02L912.98 70.68L958.73 136.23H971.62H975.78H986.01V63.77H971.62Z" fill="#FEFFFF"/>
<defs>
<linearGradient id="paint0_linear_26_50" x1="116.429" y1="96.7389" x2="231.721" y2="96.7389" gradientUnits="userSpaceOnUse">
<stop stop-color="white"/>
<stop offset="1" stop-color="#010101"/>
</linearGradient>
<linearGradient id="paint1_linear_26_50" x1="1.13597" y1="96.7389" x2="116.428" y2="96.7389" gradientUnits="userSpaceOnUse">
<stop stop-color="white"/>
<stop offset="1" stop-color="#010101"/>
</linearGradient>
<linearGradient id="paint2_linear_26_50" x1="1.13597" y1="163.305" x2="1100.48" y2="163.305" gradientUnits="userSpaceOnUse">
<stop stop-color="white"/>
<stop offset="1" stop-color="#010101"/>
</linearGradient>
</defs>
</svg>
